<svg xmlns="http://www.w3.org/2000/svg" width="131" height="32" viewBox="0 0 131 32"><g fill="none"><path fill="#00A0FF" d="M0 2.22C0 1.469.12.91.363.547.604.182.973 0 1.469 0c.483 0 .845.183 1.083.55.24.368.358.924.358 1.67v10.41c0 .752-.117 1.31-.353 1.67-.236.36-.599.541-1.088.541-.496 0-.865-.182-1.106-.546C.12 13.93 0 13.375 0 12.63V2.22zm7.408 6.221h3.862a1.902 1.902 0 0 0-.598-1.29 1.816 1.816 0 0 0-1.297-.517c-.496 0-.922.163-1.278.49-.357.326-.587.765-.69 1.317zm.036 1.986c.066.57.293 1.016.68 1.336.387.32.897.48 1.532.48.55 0 1.162-.165 1.836-.494.674-.33 1.09-.494 1.247-.494.344 0 .625.11.843.33.218.219.326.5.326.846 0 .652-.438 1.24-1.314 1.764-.877.524-1.907.786-3.092.786-1.445 0-2.65-.511-3.618-1.534-.967-1.022-1.45-2.305-1.45-3.849 0-1.55.47-2.841 1.41-3.877.94-1.035 2.11-1.552 3.513-1.552 1.354 0 2.487.486 3.4 1.458.913.973 1.37 2.162 1.37 3.567 0 .458-.1.778-.3.96-.2.182-.583.273-1.152.273H7.444zm7.97 2.202V6.52c0-.746.119-1.3.358-1.66.238-.361.606-.542 1.101-.542.297 0 .56.08.79.24.229.16.431.403.607.73a2.828 2.828 0 0 1 1.088-.781c.41-.164.91-.245 1.496-.245 1.154 0 2.037.342 2.647 1.026.61.683.916 1.678.916 2.983v4.357c0 .746-.121 1.301-.363 1.665-.242.364-.61.546-1.106.546-.496 0-.864-.182-1.106-.546-.242-.364-.363-.919-.363-1.665V9.194c0-.847-.122-1.45-.367-1.812-.245-.36-.648-.54-1.21-.54-.532 0-.925.186-1.179.56-.254.372-.38.957-.38 1.754v3.473c0 .746-.122 1.301-.364 1.665-.241.364-.61.546-1.106.546-.495 0-.863-.182-1.101-.546-.239-.364-.358-.919-.358-1.665zm11.524-5.383h-.11c-.513 0-.917-.118-1.21-.353-.293-.235-.44-.554-.44-.955 0-.414.147-.734.44-.96.293-.226.733-.358 1.32-.395V3.256c0-.747.12-1.302.362-1.666.242-.364.61-.545 1.106-.545.49 0 .854.181 1.093.545.239.364.358.92.358 1.666v1.336h.254c.58 0 1.032.12 1.355.358.324.238.485.568.485.988 0 .433-.155.759-.466.979-.312.22-.776.329-1.392.329h-.236v5.383c0 .752-.118 1.31-.354 1.67-.235.36-.601.541-1.097.541-.495 0-.864-.182-1.106-.546-.242-.364-.362-.919-.362-1.665V7.246zm5.458-5.486c0-.483.166-.897.498-1.242A1.603 1.603 0 0 1 34.091 0c.46 0 .853.173 1.179.518.326.345.49.759.49 1.242 0 .49-.162.903-.486 1.242a1.574 1.574 0 0 1-1.183.508c-.477 0-.88-.17-1.206-.508a1.723 1.723 0 0 1-.49-1.242zm3.137 10.869c0 .752-.118 1.31-.354 1.67-.235.36-.598.541-1.088.541-.495 0-.864-.182-1.106-.546-.242-.364-.363-.919-.363-1.665V6.52c0-.746.12-1.3.359-1.66.238-.361.609-.542 1.11-.542.49 0 .853.18 1.088.541.236.361.354.915.354 1.661v6.108zM37.727 2.22c0-.753.12-1.311.363-1.675C38.33.182 38.7 0 39.196 0c.483 0 .845.183 1.083.55.24.368.358.924.358 1.67v10.41c0 .752-.117 1.31-.353 1.67-.236.36-.599.541-1.088.541-.496 0-.865-.182-1.106-.546-.242-.364-.363-.919-.363-1.665V2.22zm5.105 0c0-.753.12-1.311.362-1.675C43.436.182 43.804 0 44.3 0c.484 0 .845.183 1.084.55.239.368.358.924.358 1.67v10.41c0 .752-.118 1.31-.354 1.67-.235.36-.598.541-1.088.541-.495 0-.864-.182-1.106-.546-.241-.364-.362-.919-.362-1.665V2.22zm7.407 6.22h3.863a1.902 1.902 0 0 0-.599-1.29 1.816 1.816 0 0 0-1.296-.517c-.496 0-.922.163-1.279.49-.356.326-.586.765-.689 1.317zm.036 1.986c.067.57.294 1.016.68 1.336.387.32.898.48 1.533.48.55 0 1.162-.165 1.836-.494.674-.33 1.09-.494 1.247-.494.344 0 .625.11.843.33.217.219.326.5.326.846 0 .652-.438 1.24-1.315 1.764-.876.524-1.907.786-3.091.786-1.445 0-2.65-.511-3.618-1.534-.967-1.022-1.45-2.305-1.45-3.849 0-1.55.47-2.841 1.41-3.877.94-1.035 2.11-1.552 3.513-1.552 1.354 0 2.487.486 3.4 1.458.912.973 1.369 2.162 1.369 3.567 0 .458-.1.778-.3.96-.199.182-.583.273-1.151.273h-5.232zM61.047 15c-1.046 0-1.912-.216-2.598-.65-.686-.432-1.029-.969-1.029-1.608 0-.383.109-.706.327-.97.217-.263.48-.395.788-.395.309 0 .762.147 1.36.442.599.295 1.05.443 1.351.443.242 0 .439-.06.59-.18a.544.544 0 0 0 .226-.441c0-.302-.468-.647-1.405-1.036l-.19-.075c-1.07-.464-1.802-.924-2.195-1.378-.392-.455-.589-1.03-.589-1.727 0-.935.346-1.715 1.038-2.339.692-.624 1.567-.936 2.625-.936.955 0 1.765.21 2.43.63.665.42.997.916.997 1.487 0 .358-.116.659-.349.904a1.136 1.136 0 0 1-.857.367c-.223 0-.602-.123-1.137-.367-.535-.245-.942-.367-1.22-.367-.2 0-.36.048-.48.145a.466.466 0 0 0-.182.382c0 .282.387.577 1.16.884.363.144.65.267.862.367.877.408 1.5.84 1.872 1.294.372.455.558 1.005.558 1.652 0 .99-.373 1.817-1.12 2.48-.746.661-1.69.992-2.833.992zM0 29.613v-6.1c0-.752.12-1.312.36-1.682.241-.37.605-.555 1.092-.555.283 0 .54.083.771.25.232.165.438.418.618.756.3-.345.64-.598 1.02-.761a3.276 3.276 0 0 1 1.307-.245c.625 0 1.178.12 1.66.357.48.239.895.596 1.244 1.072.439-.508.887-.873 1.344-1.095.457-.222.986-.334 1.587-.334 1.04 0 1.85.348 2.426 1.044.578.695.866 1.676.866 2.941v4.352c0 .745-.12 1.3-.36 1.663-.241.364-.608.545-1.1.545-.494 0-.858-.18-1.092-.54-.235-.36-.352-.916-.352-1.668v-3.43c0-.796-.107-1.38-.32-1.749-.214-.37-.549-.554-1.006-.554-.505 0-.875.181-1.11.545-.234.363-.35.937-.35 1.72v3.468c0 .745-.121 1.3-.362 1.663-.24.364-.607.545-1.1.545-.493 0-.86-.181-1.1-.545-.24-.363-.361-.918-.361-1.663v-3.43c0-.803-.105-1.387-.316-1.753-.21-.367-.54-.55-.992-.55-.505 0-.875.181-1.11.545-.234.363-.35.937-.35 1.72v3.468c0 .745-.121 1.3-.362 1.663-.24.364-.607.545-1.1.545-.493 0-.858-.181-1.096-.545C.12 30.913 0 30.358 0 29.613zm18.651-3.083c0 .777.178 1.402.533 1.875.354.473.817.71 1.388.71.572 0 1.035-.238 1.39-.715.354-.476.532-1.1.532-1.87 0-.746-.182-1.355-.546-1.828-.364-.473-.822-.71-1.376-.71-.565 0-1.026.235-1.384.705-.358.47-.537 1.081-.537 1.833zm-3.012.038c0-1.58.465-2.878 1.394-3.896.928-1.018 2.108-1.527 3.54-1.527 1.437 0 2.615.507 3.535 1.522.92 1.015 1.38 2.315 1.38 3.9 0 1.586-.46 2.888-1.38 3.906C23.188 31.49 22.01 32 20.572 32c-1.43 0-2.61-.51-3.54-1.532-.928-1.021-1.393-2.321-1.393-3.9zm11.157-7.81c0-.483.165-.896.496-1.241.33-.345.727-.517 1.19-.517.457 0 .848.172 1.173.517.324.345.487.758.487 1.24 0 .49-.161.903-.483 1.241a1.562 1.562 0 0 1-1.177.508 1.6 1.6 0 0 1-1.2-.508 1.724 1.724 0 0 1-.486-1.24zm3.12 10.855c0 .752-.117 1.308-.351 1.668-.235.36-.596.54-1.083.54-.493 0-.86-.181-1.1-.545-.24-.363-.36-.918-.36-1.663v-6.1c0-.745.118-1.298.355-1.659.238-.36.606-.54 1.105-.54.487 0 .848.18 1.083.54.234.36.351.914.351 1.66v6.099zm2.093 0v-6.1c0-.745.118-1.298.356-1.659.237-.36.603-.54 1.096-.54.294 0 .556.08.784.24.229.16.43.402.605.728a2.814 2.814 0 0 1 1.082-.78c.409-.163.905-.244 1.488-.244 1.149 0 2.026.341 2.634 1.024.607.683.91 1.676.91 2.98v4.35c0 .746-.12 1.3-.36 1.664-.24.364-.607.545-1.1.545-.494 0-.86-.181-1.1-.545-.241-.363-.362-.918-.362-1.663v-3.43c0-.847-.121-1.45-.365-1.81-.243-.36-.645-.54-1.204-.54-.529 0-.92.186-1.172.559-.253.373-.38.957-.38 1.753v3.468c0 .745-.12 1.3-.36 1.663-.24.364-.607.545-1.1.545-.493 0-.859-.181-1.096-.545-.238-.363-.356-.918-.356-1.663zm13.664 2.368c-1.04 0-1.902-.216-2.584-.648-.683-.433-1.024-.968-1.024-1.607 0-.383.108-.705.325-.968.216-.264.478-.395.784-.395.307 0 .758.147 1.353.442.595.294 1.043.441 1.344.441.24 0 .436-.06.586-.178a.544.544 0 0 0 .226-.442c0-.3-.466-.645-1.398-1.034l-.19-.075c-1.064-.464-1.791-.923-2.182-1.377-.391-.454-.587-1.03-.587-1.725 0-.933.345-1.712 1.033-2.335.689-.624 1.559-.935 2.611-.935.95 0 1.756.21 2.417.63.662.42.992.914.992 1.484 0 .358-.115.658-.347.903a1.128 1.128 0 0 1-.852.366c-.223 0-.6-.122-1.132-.366-.532-.245-.937-.367-1.213-.367a.738.738 0 0 0-.478.146.466.466 0 0 0-.18.38c0 .282.384.577 1.154.884.36.144.646.266.857.366.872.408 1.492.838 1.862 1.293.37.454.555 1.004.555 1.65 0 .99-.371 1.815-1.114 2.476-.743.66-1.682.991-2.818.991zm4.671-5.413c0-1.598.46-2.895 1.38-3.891.92-.997 2.129-1.495 3.626-1.495.968 0 1.753.18 2.354.54.601.361.902.83.902 1.406 0 .37-.114.677-.343.92a1.135 1.135 0 0 1-.866.367c-.15 0-.454-.076-.91-.23-.458-.153-.836-.23-1.137-.23-.601 0-1.087.235-1.457.705-.37.47-.554 1.087-.554 1.851 0 .796.19 1.421.568 1.875.379.455.896.682 1.551.682.319 0 .7-.077 1.141-.23.442-.154.73-.23.861-.23.32 0 .587.126.803.38.217.254.325.565.325.935 0 .558-.328 1.034-.983 1.429-.656.394-1.467.592-2.435.592-1.431 0-2.593-.497-3.486-1.49-.893-.993-1.34-2.289-1.34-3.886zm12.266-4.352a2.82 2.82 0 0 1 1.047-.733c.384-.15.868-.225 1.452-.225 1.148 0 2.026.341 2.633 1.024.608.683.911 1.676.911 2.98v4.35c0 .746-.12 1.3-.36 1.664-.241.364-.608.545-1.1.545-.494 0-.86-.181-1.101-.545-.24-.363-.361-.918-.361-1.663v-3.43c0-.847-.122-1.45-.365-1.81-.244-.36-.645-.54-1.204-.54-.53 0-.92.186-1.173.559-.252.373-.379.957-.379 1.753v3.468c0 .745-.12 1.3-.36 1.663-.24.364-.608.545-1.1.545-.494 0-.859-.181-1.097-.545-.237-.363-.356-.918-.356-1.663V19.218c0-.752.119-1.31.356-1.673.238-.363.603-.545 1.096-.545.493 0 .86.185 1.1.555.241.37.361.924.361 1.663v2.998zm10.345 3.214h3.842a1.903 1.903 0 0 0-.595-1.287 1.803 1.803 0 0 0-1.29-.517c-.493 0-.917.163-1.271.489-.355.325-.584.764-.686 1.315zm.036 1.984c.066.57.292 1.015.677 1.334.385.32.893.48 1.524.48.547 0 1.156-.165 1.826-.494.67-.329 1.084-.493 1.24-.493.343 0 .623.11.84.329.216.219.324.5.324.845 0 .652-.436 1.24-1.308 1.763-.872.523-1.897.784-3.075.784-1.437 0-2.637-.51-3.599-1.532-.962-1.02-1.443-2.302-1.443-3.844 0-1.547.467-2.838 1.402-3.872.935-1.034 2.1-1.55 3.495-1.55 1.347 0 2.475.485 3.382 1.456.908.971 1.362 2.159 1.362 3.562 0 .458-.099.777-.297.959-.199.182-.58.273-1.146.273h-5.204zm7.928 2.199v-6.1c0-.745.119-1.298.356-1.659.238-.36.603-.54 1.096-.54.295 0 .556.08.785.24.228.16.43.402.604.728.3-.338.62-.594.956-.766a2.217 2.217 0 0 1 1.02-.258c.402 0 .75.148 1.041.446.292.298.437.65.437 1.057 0 .608-.535 1.116-1.605 1.523-.385.144-.673.263-.866.357-.367.182-.61.384-.73.606-.12.223-.18.625-.18 1.208v3.158c0 .745-.121 1.3-.362 1.663-.24.364-.607.545-1.1.545-.493 0-.858-.181-1.096-.545-.237-.363-.356-.918-.356-1.663zm9.398-4.183h3.842a1.903 1.903 0 0 0-.595-1.287 1.803 1.803 0 0 0-1.29-.517c-.493 0-.917.163-1.272.489-.354.325-.583.764-.685 1.315zm.036 1.984c.066.57.292 1.015.676 1.334.385.32.893.48 1.525.48.547 0 1.156-.165 1.826-.494.67-.329 1.084-.493 1.24-.493.343 0 .622.11.839.329.216.219.325.5.325.845 0 .652-.436 1.24-1.308 1.763-.872.523-1.897.784-3.076.784-1.437 0-2.636-.51-3.598-1.532-.962-1.02-1.443-2.302-1.443-3.844 0-1.547.467-2.838 1.402-3.872.935-1.034 2.1-1.55 3.495-1.55 1.347 0 2.474.485 3.382 1.456.908.971 1.362 2.159 1.362 3.562 0 .458-.1.777-.298.959-.198.182-.58.273-1.145.273h-5.204zm10.715 4.567c-1.04 0-1.902-.216-2.584-.648-.683-.433-1.024-.968-1.024-1.607 0-.383.108-.705.325-.968.216-.264.478-.395.784-.395.307 0 .758.147 1.353.442.596.294 1.043.441 1.344.441.24 0 .436-.06.586-.178a.544.544 0 0 0 .226-.442c0-.3-.466-.645-1.398-1.034l-.19-.075c-1.064-.464-1.791-.923-2.182-1.377-.391-.454-.586-1.03-.586-1.725 0-.933.344-1.712 1.032-2.335.689-.624 1.56-.935 2.611-.935.95 0 1.756.21 2.417.63.662.42.993.914.993 1.484 0 .358-.116.658-.348.903a1.128 1.128 0 0 1-.852.366c-.222 0-.6-.122-1.132-.366-.532-.245-.936-.367-1.213-.367a.738.738 0 0 0-.478.146.466.466 0 0 0-.18.38c0 .282.384.577 1.154.884.36.144.646.266.857.366.872.408 1.493.838 1.862 1.293.37.454.555 1.004.555 1.65 0 .99-.371 1.815-1.114 2.476-.742.66-1.682.991-2.818.991z"/><path fill="#ADADAD" d="M106 30.758a1.1 1.1 0 0 1 .321-.797c.215-.22.472-.33.772-.33.296 0 .549.11.76.33.21.22.315.485.315.797 0 .315-.105.581-.313.8a1.014 1.014 0 0 1-.762.327c-.308 0-.567-.11-.778-.327a1.11 1.11 0 0 1-.315-.8zm2.74-2.261c0-1.03.298-1.867.894-2.51.596-.642 1.379-.963 2.349-.963.627 0 1.135.116 1.525.349.39.232.584.534.584.906a.834.834 0 0 1-.222.594.737.737 0 0 1-.561.236c-.097 0-.294-.05-.59-.148-.296-.1-.542-.149-.736-.149-.39 0-.704.152-.944.455-.24.303-.36.7-.36 1.194 0 .513.124.916.369 1.209.245.293.58.44 1.005.44.206 0 .453-.05.739-.15.286-.098.472-.148.558-.148.206 0 .38.082.52.246.14.163.21.364.21.603 0 .36-.212.666-.637.92-.424.255-.95.383-1.577.383-.927 0-1.68-.32-2.258-.961-.579-.64-.868-1.476-.868-2.506zm7.636-.024c0 .5.115.904.345 1.209.23.305.53.457.9.457s.67-.153.9-.46c.23-.307.344-.71.344-1.206 0-.481-.118-.874-.353-1.18-.236-.304-.533-.457-.891-.457a1.08 1.08 0 0 0-.897.455c-.232.303-.348.697-.348 1.182zm-1.951.024c0-1.018.3-1.856.903-2.512.601-.657 1.366-.985 2.293-.985.93 0 1.694.327 2.29.982.596.654.894 1.493.894 2.515s-.298 1.862-.894 2.518c-.596.657-1.36.985-2.29.985-.927 0-1.692-.33-2.293-.988-.602-.658-.903-1.497-.903-2.515zm7.315 1.964v-3.934c0-.485.078-.846.233-1.085.156-.238.392-.357.707-.357a.84.84 0 0 1 .5.16c.15.108.283.27.4.488a1.83 1.83 0 0 1 .66-.49c.246-.106.528-.158.847-.158.405 0 .764.077 1.075.23.312.154.58.384.807.691.284-.327.574-.563.87-.706a2.331 2.331 0 0 1 1.028-.215c.674 0 1.198.224 1.572.673.374.448.561 1.08.561 1.897v2.806c0 .48-.078.838-.234 1.072-.155.235-.393.352-.712.352-.32 0-.556-.116-.707-.349-.152-.232-.228-.59-.228-1.075v-2.213c0-.513-.07-.888-.208-1.127-.138-.238-.355-.357-.651-.357-.327 0-.567.117-.719.351-.152.234-.228.604-.228 1.11v2.236c0 .48-.078.838-.233 1.072-.156.235-.394.352-.713.352-.32 0-.557-.117-.713-.352-.156-.234-.234-.592-.234-1.072v-2.213c0-.517-.068-.893-.204-1.13-.136-.236-.35-.354-.643-.354-.327 0-.566.117-.718.351-.152.234-.228.604-.228 1.11v2.236c0 .48-.078.838-.234 1.072-.156.235-.393.352-.713.352-.32 0-.556-.117-.71-.352-.153-.234-.23-.592-.23-1.072z"/></g></svg>